HIERARCHY
ROOT Hips
{
	OFFSET -0.001795 -0.223333 0.028219
	CHANNELS 6 Xposition Yposition Zposition Zrotation Yrotation Xrotation 
	JOINT LeftUpLeg
	{
		OFFSET 0.069520 -0.091406 -0.006815
		CHANNELS 3 Zrotation Yrotation Xrotation
		JOINT LeftLeg
		{
			OFFSET 0.034277 -0.375199 -0.004496
			CHANNELS 3 Zrotation Yrotation Xrotation
			JOINT LeftFoot
			{
				OFFSET -0.013596 -0.397961 -0.043693
				CHANNELS 3 Zrotation Yrotation Xrotation
				JOINT LeftToe
				{
					OFFSET 0.026358 -0.055791 0.119288
					CHANNELS 3 Zrotation Yrotation Xrotation
					End Site
					{
						OFFSET 0.000000 0.000000 0.000000
					}
				}
			}
		}
	}
	JOINT RightUpLeg
	{
		OFFSET -0.067670 -0.090522 -0.004320
		CHANNELS 3 Zrotation Yrotation Xrotation
		JOINT RightLeg
		{
			OFFSET -0.038290 -0.382569 -0.008850
			CHANNELS 3 Zrotation Yrotation Xrotation
			JOINT RightFoot
			{
				OFFSET 0.015774 -0.398415 -0.042312
				CHANNELS 3 Zrotation Yrotation Xrotation
				JOINT RightToe
				{
					OFFSET -0.025372 -0.048144 0.123348
					CHANNELS 3 Zrotation Yrotation Xrotation
					End Site
					{
						OFFSET 0.000000 0.000000 0.000000
					}
				}
			}
		}
	}
	JOINT Spine
	{
		OFFSET -0.002533 0.108963 -0.026696
		CHANNELS 3 Zrotation Yrotation Xrotation
		JOINT Spine1
		{
			OFFSET 0.005487 0.135180 0.001092
			CHANNELS 3 Zrotation Yrotation Xrotation
			JOINT Spine2
			{
				OFFSET 0.001457 0.052922 0.025425
				CHANNELS 3 Zrotation Yrotation Xrotation
				JOINT Neck
				{
					OFFSET -0.002778 0.213870 -0.042857
					CHANNELS 3 Zrotation Yrotation Xrotation
					JOINT Head
					{
						OFFSET 0.005152 0.064970 0.051349
						CHANNELS 3 Zrotation Yrotation Xrotation
						End Site
						{
							OFFSET 0.000000 0.000000 0.000000
						}
					}
				}
				JOINT LeftShoulder
				{
					OFFSET 0.078845 0.121749 -0.034090
					CHANNELS 3 Zrotation Yrotation Xrotation
					JOINT LeftArm
					{
						OFFSET 0.090977 0.030469 -0.008868
						CHANNELS 3 Zrotation Yrotation Xrotation
						JOINT LeftForeArm
						{
							OFFSET 0.259612 -0.012772 -0.027456
							CHANNELS 3 Zrotation Yrotation Xrotation
							JOINT LeftHand
							{
								OFFSET 0.249234 0.008986 -0.001171
								CHANNELS 3 Zrotation Yrotation Xrotation
								End Site
								{
									OFFSET 0.000000 0.000000 0.000000
								}
							}
						}
					}
				}
				JOINT RightShoulder
				{
					OFFSET -0.081759 0.118833 -0.038615
					CHANNELS 3 Zrotation Yrotation Xrotation
					JOINT RightArm
					{
						OFFSET -0.096012 0.032551 -0.009143
						CHANNELS 3 Zrotation Yrotation Xrotation
						JOINT RightForeArm
						{
							OFFSET -0.253742 -0.013329 -0.021401
							CHANNELS 3 Zrotation Yrotation Xrotation
							JOINT RightHand
							{
								OFFSET -0.255298 0.007772 -0.005559
								CHANNELS 3 Zrotation Yrotation Xrotation
								End Site
								{
									OFFSET 0.000000 0.000000 0.000000
								}
							}
						}
					}
				}
			}
		}
	}
}
MOTION
Frames: 16
Frame Time: 0.050000
-0.044470 0.956174 3.024920 -4.156182 -1.119323 -10.604375 -7.497224 4.084845 26.119940 3.775535 -0.472486 0.632974 3.277248 9.560383 10.084751 0.000000 0.000000 0.000000 -0.453110 5.217923 -48.986122 13.197321 -7.287242 64.531378 -13.128913 -26.650787 23.657244 0.000000 0.000000 0.000000 14.505859 -2.077624 14.196614 -4.417419 1.701884 -26.597661 -9.643480 -10.845768 31.661476 1.666367 -0.528388 -37.938400 0.000000 0.000000 0.000000 -16.055004 -19.005592 11.047844 -17.917689 -46.800649 1.676264 37.428687 -32.721728 -8.924084 0.000000 0.000000 0.000000 25.620882 -13.478507 -13.541532 37.260314 -39.609740 -16.379850 6.472611 22.556240 1.711296 0.000000 0.000000 0.000000 
-0.050826 0.941646 3.072035 -2.774175 -0.760247 -7.494122 -8.400596 4.315418 25.793316 3.597486 -0.507951 1.553843 3.079865 8.553150 7.248356 0.000000 0.000000 0.000000 1.244668 4.802152 -40.631316 11.085671 -4.049484 45.440867 -11.919158 -24.952891 24.984486 0.000000 0.000000 0.000000 13.063360 -1.708470 12.086919 -3.444805 1.442336 -28.034463 -10.453860 -8.125947 31.624760 5.041627 -1.913474 -35.837304 0.000000 0.000000 0.000000 -18.653268 -18.646009 11.099173 -20.956850 -46.837176 2.327442 36.214406 -34.730739 -9.158529 0.000000 0.000000 0.000000 26.691257 -15.154711 -14.241818 38.194405 -42.770489 -17.792535 5.106565 26.206726 1.822268 0.000000 0.000000 0.000000 
-0.057164 0.929364 3.122270 -1.584088 -0.037653 -5.079466 -10.114285 4.521586 24.652553 3.889187 -0.715310 4.096187 5.081656 12.222855 8.100308 0.000000 0.000000 0.000000 2.766755 4.077318 -32.188449 7.732339 -1.909266 34.438033 -11.733309 -25.230410 19.317391 0.000000 0.000000 0.000000 11.705918 -1.181950 8.737360 -4.426777 1.641472 -28.264512 -9.111300 -8.148757 31.710958 4.000140 -1.437395 -35.083004 0.000000 0.000000 0.000000 -22.414266 -17.341122 11.302472 -25.971598 -45.027245 3.183918 32.281154 -41.220023 -9.369969 0.000000 0.000000 0.000000 28.552076 -14.634182 -14.616787 40.367146 -41.006452 -18.188171 1.689404 29.517178 1.252130 0.000000 0.000000 0.000000 
-0.063358 0.923683 3.173256 -1.678815 -0.066577 -3.008734 -8.794394 3.730050 21.570958 2.197046 -0.859212 11.329171 4.640338 11.771395 9.867315 0.000000 0.000000 0.000000 4.160835 3.480298 -25.514418 7.864317 -1.701801 27.170856 -11.867223 -26.304239 12.278960 0.000000 0.000000 0.000000 11.414391 -0.833124 5.942144 -4.898817 1.762669 -26.462864 -7.308538 -7.896400 29.924373 4.344395 -1.408838 -35.298504 0.000000 0.000000 0.000000 -25.306386 -14.575761 10.195370 -34.554473 -42.416457 4.829562 20.378150 -45.765523 -5.262254 0.000000 0.000000 0.000000 29.047280 -12.415575 -13.270806 44.868893 -33.076659 -17.394084 -0.374902 31.278726 0.810729 0.000000 0.000000 0.000000 
-0.070146 0.931282 3.221392 -2.438890 -1.274026 -2.344680 -6.263726 2.396613 15.766119 -1.594117 -0.227420 23.155238 3.799902 11.790845 18.270623 0.000000 0.000000 0.000000 7.074169 3.088894 -19.362115 5.863858 -0.828612 22.698746 -10.120236 -23.788625 7.343508 0.000000 0.000000 0.000000 11.832969 -0.749669 5.155483 -3.881430 1.491659 -27.822704 -6.561394 -3.784073 30.086876 3.051842 -0.188425 -35.514204 0.000000 0.000000 0.000000 -25.135573 -13.754070 8.644387 -42.869261 -34.611811 4.165612 7.994450 -44.032940 -0.185993 0.000000 0.000000 0.000000 29.732097 -11.124742 -11.363921 46.542537 -19.415864 -13.295081 -0.282520 28.629653 1.006981 0.000000 0.000000 0.000000 
-0.078096 0.943660 3.265294 -2.943989 -1.830610 -3.040796 -2.402867 0.498503 4.323584 -5.717877 1.925353 47.566723 -0.199545 7.265259 23.040479 0.000000 0.000000 0.000000 8.173014 1.890380 -11.628957 4.866681 -0.498438 17.663235 -9.390535 -22.453946 5.831059 0.000000 0.000000 0.000000 11.721084 -0.785415 5.648822 -4.266343 1.590231 -26.051512 -4.370948 -1.924696 27.907077 3.070521 0.107379 -35.406746 0.000000 0.000000 0.000000 -27.811562 -9.067310 5.288851 -48.440968 -24.057475 0.998219 -5.403991 -39.076553 4.414052 0.000000 0.000000 0.000000 29.190645 -6.781525 -7.638004 49.131536 -6.167934 -9.127729 0.101410 31.921865 1.381420 0.000000 0.000000 0.000000 
-0.086264 0.953887 3.305380 -2.363127 -4.617981 -4.011598 0.769360 -0.838205 -10.349953 -7.542722 6.711791 75.787662 -1.889599 4.460998 20.928836 0.000000 0.000000 0.000000 8.112316 0.685012 -4.844521 3.837978 -0.202629 12.525781 -7.161655 -17.901468 4.693768 0.000000 0.000000 0.000000 10.891654 -0.891673 7.216828 -5.794489 1.869863 -27.694848 -0.575014 5.804403 28.870875 5.553704 -0.280500 -34.331558 0.000000 0.000000 0.000000 -27.049324 -8.192771 2.554942 -49.584477 -11.278724 -3.709040 -10.176400 -36.131115 5.146663 0.000000 0.000000 0.000000 30.938416 -5.571783 -4.691338 48.886231 7.231987 -4.787708 0.331795 43.975277 3.039288 0.000000 0.000000 0.000000 
-0.093790 0.963047 3.343391 -1.518623 -8.525985 -5.945324 2.280451 -1.232607 -23.303809 -5.816538 10.602085 97.765822 0.528170 6.643859 14.863350 0.000000 0.000000 0.000000 7.448719 -0.453642 2.032193 2.942067 -0.050765 8.709255 -5.565971 -14.351816 3.781441 0.000000 0.000000 0.000000 9.840658 -1.015723 9.603090 -7.713385 2.251861 -27.788940 2.865065 11.817613 28.667190 6.617207 -0.356368 -33.182842 0.000000 0.000000 0.000000 -27.363557 -5.735502 -0.354457 -45.490852 0.745868 -7.376507 -14.714029 -34.669649 5.948232 0.000000 0.000000 0.000000 33.288218 -1.184630 -0.283207 43.507600 24.482831 0.992771 -13.410725 51.608474 -2.266538 0.000000 0.000000 0.000000 
-0.101127 0.970599 3.381380 -0.203905 -12.275664 -7.140116 2.755978 -0.880020 -35.923088 -3.747816 11.993296 110.427605 3.642148 9.347972 4.995761 0.000000 0.000000 0.000000 6.779617 -1.210074 7.803589 0.713721 0.158146 5.070571 -3.553102 -10.606980 5.122655 0.000000 0.000000 0.000000 7.618324 -0.984678 11.595478 -9.261939 2.491238 -29.945169 7.579185 18.381167 30.459036 7.048067 0.145808 -33.093409 0.000000 0.000000 0.000000 -25.861453 -3.474586 -3.025949 -43.394062 10.151063 -9.841361 -12.314752 -29.678919 4.112634 0.000000 0.000000 0.000000 32.018870 1.002092 3.097546 40.198863 40.695050 5.819895 -27.256815 50.763493 -7.895536 0.000000 0.000000 0.000000 
-0.108612 0.972864 3.419672 0.333743 -14.348197 -8.321872 2.093576 -0.445482 -46.049575 -2.423198 10.158441 110.709405 5.224802 11.691362 2.568731 0.000000 0.000000 0.000000 6.015817 -1.660125 13.003771 -0.070700 0.117194 2.383124 -2.603952 -9.509577 7.057852 0.000000 0.000000 0.000000 5.530139 -0.865984 12.978112 -8.122036 2.214580 -29.870882 9.212602 24.572684 31.966400 10.021381 -0.664616 -32.596373 0.000000 0.000000 0.000000 -23.547201 -1.868444 -5.079896 -40.476664 15.811493 -10.652049 -8.908016 -24.607058 2.417010 0.000000 0.000000 0.000000 30.071197 3.204427 6.418354 35.231983 53.872799 8.688843 -40.674765 42.828239 -10.803998 0.000000 0.000000 0.000000 
-0.116216 0.969545 3.458934 1.178249 -16.667825 -9.256848 0.285702 -0.362342 -52.572716 -1.173697 7.659678 99.832699 5.945575 13.083963 3.904284 0.000000 0.000000 0.000000 4.339035 -1.678886 18.005321 -0.056049 0.015018 0.216214 -1.260652 -7.976428 9.205353 0.000000 0.000000 0.000000 3.690631 -0.712451 14.770803 -9.517770 2.479460 -32.232531 13.928692 28.247265 34.953397 10.525725 -0.328818 -33.808064 0.000000 0.000000 0.000000 -21.700504 -1.158993 -5.698513 -37.777172 20.900024 -11.396621 -7.479137 -20.918982 1.726639 0.000000 0.000000 0.000000 26.373694 4.660372 7.526566 30.901139 62.433401 10.144930 -45.007294 35.137351 -9.552464 0.000000 0.000000 0.000000 
-0.123314 0.962130 3.499932 0.788904 -17.534654 -8.588946 -0.936938 -0.677552 -53.662289 -1.036177 5.687152 81.145539 4.905411 11.560424 8.979033 0.000000 0.000000 0.000000 4.604238 -1.835695 20.885814 -0.516313 0.002768 -0.875186 -1.418572 -8.673303 10.182833 0.000000 0.000000 0.000000 3.340892 -0.673953 14.912050 -9.131590 2.381904 -33.461088 15.251038 30.153188 36.548006 10.347912 -0.044966 -33.041238 0.000000 0.000000 0.000000 -21.255227 -1.301916 -5.908958 -36.434473 25.455138 -12.305278 -4.217726 -17.472301 0.963548 0.000000 0.000000 0.000000 25.192207 5.850941 8.515667 25.303260 68.208722 9.025517 -46.958852 29.287549 -7.960917 0.000000 0.000000 0.000000 
-0.130179 0.951458 3.543976 0.786680 -18.126906 -7.378515 -1.288740 -1.016387 -48.038183 -1.774902 3.884416 55.164623 1.971963 8.302769 20.752950 0.000000 0.000000 0.000000 4.088414 -1.753900 22.416196 0.250545 -0.008371 0.212282 -2.715460 -10.215857 8.374634 0.000000 0.000000 0.000000 2.080865 -0.524962 14.868144 -9.378224 2.448700 -33.992941 15.428268 28.970370 35.980009 9.863248 0.018645 -33.658284 0.000000 0.000000 0.000000 -19.759788 1.200887 -6.356311 -36.438005 27.724179 -13.128990 -2.862831 -15.930210 0.730600 0.000000 0.000000 0.000000 23.258621 7.052715 8.329229 31.443024 71.811300 14.869227 -47.566354 28.282468 -7.674698 0.000000 0.000000 0.000000 
-0.136712 0.939268 3.593243 0.347509 -19.978463 -5.685788 0.443944 -0.435775 -39.193737 -5.602763 3.644982 32.254568 5.123802 12.638256 34.100096 0.000000 0.000000 0.000000 2.902082 -1.380661 23.062137 0.678286 0.069653 2.807492 -1.889080 -7.348131 5.373281 0.000000 0.000000 0.000000 2.712026 -0.560345 12.399050 -10.426152 2.582205 -32.448174 15.370503 30.565035 34.928591 8.602619 0.543497 -31.592094 0.000000 0.000000 0.000000 -19.801608 -0.028651 -5.828832 -37.634142 29.065517 -13.953061 1.707415 -15.660786 0.094725 0.000000 0.000000 0.000000 26.004048 6.705771 8.920732 36.384316 72.317167 18.140603 -44.875488 30.816499 -7.855887 0.000000 0.000000 0.000000 
-0.143082 0.929867 3.649648 -0.538890 -18.778374 -4.762576 -0.840203 -1.375368 -29.267102 -6.023377 2.382788 20.442662 8.207325 15.517820 30.541449 0.000000 0.000000 0.000000 3.097691 -1.571773 24.794084 0.391319 0.192742 4.707384 -1.119959 -6.793317 7.399235 0.000000 0.000000 0.000000 2.585626 -0.511923 10.217199 -8.472213 2.217185 -30.638152 11.584904 29.411212 33.836071 8.994103 0.260415 -32.256792 0.000000 0.000000 0.000000 -21.406845 0.755550 -6.582747 -37.504114 27.471983 -13.286362 2.269229 -15.760312 0.031932 0.000000 0.000000 0.000000 27.693170 7.337476 9.592840 45.740608 68.752812 22.232868 -42.023644 34.562713 -8.055909 0.000000 0.000000 0.000000 
-0.147405 0.931473 3.710656 -0.817856 -16.945850 -4.425695 -3.619694 -2.084242 -22.941809 -4.996677 1.530957 15.790330 10.240872 18.207828 25.928581 0.000000 0.000000 0.000000 1.960902 -1.463396 23.870318 0.978084 0.576507 12.218250 1.427147 -4.469430 12.554006 0.000000 0.000000 0.000000 2.439057 -0.420501 7.616432 -9.903805 2.577680 -29.367595 11.022698 26.586824 33.137716 8.606113 0.208892 -32.477765 0.000000 0.000000 0.000000 -25.532912 0.372437 -7.210092 -36.255749 20.932874 -10.600608 3.895203 -17.642174 -0.191482 0.000000 0.000000 0.000000 31.115570 5.587713 8.669065 49.943464 56.614470 16.816695 -28.503523 42.005144 -5.613093 0.000000 0.000000 0.000000 
